<?xml version="1.0" encoding="iso-8859-1"?><!-- Generator: Adobe Illustrator 19.0.0, SVG Export Plug-In . SVG Version: 6.00 Build 0) --><svg version="1.1" id="Capa_1" xmlns="http://www.w3.org/2000/svg" xmlns:xlink="http://www.w3.org/1999/xlink" x="0px" y="0px" viewBox="0 0 512 512" style="enable-background:new 0 0 512 512;" xml:space="preserve"><path style="fill:#60DD4D;" d="M362.108,90.75l-1.735-10.81l-10.825-1.643c-0.572-0.087-14.21-2.111-31.109-0.801c-24.078,1.869-42.757,9.287-55.519,22.048c-2.525,2.525-4.827,5.291-6.921,8.274c-2.094-2.983-4.395-5.749-6.92-8.274c-12.762-12.762-31.441-20.18-55.519-22.048c-16.899-1.312-30.537,0.713-31.109,0.801l-10.825,1.643l-1.735,10.81c-0.092,0.577-2.256,14.335-1.088,31.36c1.668,24.302,9.003,43.113,21.799,55.91h0.001c12.783,12.782,31.43,20.143,55.423,21.878c3.729,0.27,7.297,0.375,10.6,0.375c1.519,0,2.978-0.023,4.374-0.062v125.792h30v-125.79c1.396,0.039,2.855,0.062,4.374,0.062c3.302,0,6.872-0.105,10.6-0.375c23.993-1.735,42.64-9.096,55.423-21.878h0.001c12.797-12.797,20.131-31.608,21.799-55.91C364.365,105.086,362.201,91.328,362.108,90.75z"/><path style="fill:#3EB52B;" d="M362.108,90.75l-1.735-10.81l-10.825-1.643c-0.572-0.087-14.21-2.111-31.109-0.801c-24.078,1.869-42.757,9.287-55.519,22.048c-2.525,2.525-4.827,5.291-6.921,8.274v218.186h15V200.213c1.396,0.039,2.855,0.062,4.374,0.062c3.302,0,6.872-0.105,10.6-0.375c23.993-1.735,42.64-9.096,55.423-21.878h0.001c12.797-12.797,20.131-31.608,21.799-55.91C364.365,105.086,362.201,91.328,362.108,90.75z"/><path style="fill:#60DD4D;" d="M482.917,152.536l-1.736-10.81l-10.824-1.643c-1.078-0.164-10.889-1.57-23.269-0.61c-18.301,1.42-32.593,7.152-42.479,17.039c-9.942,9.942-15.575,24.326-16.742,42.75c-0.286,4.51-0.217,12.208-0.217,12.208v93.203h30v-68.699c2.144-0.022,4.419-0.102,6.797-0.274c18.248-1.319,32.525-7.012,42.432-16.918l0,0c9.922-9.921,15.595-24.32,16.863-42.797C484.597,163.513,483.091,153.622,482.917,152.536z"/><path style="fill:#3EB52B;" d="M482.917,152.536l-1.736-10.81l-10.824-1.643c-1.078-0.164-10.889-1.57-23.269-0.61c-11.393,0.884-21.231,3.441-29.421,7.63v88.87c2.139-0.023,4.408-0.103,6.779-0.274c18.248-1.319,32.525-7.012,42.432-16.918l0,0c9.922-9.921,15.595-24.32,16.863-42.797C484.597,163.513,483.091,153.622,482.917,152.536z"/><path style="fill:#60DD4D;" d="M29.083,152.536l1.736-10.81l10.824-1.643c1.078-0.164,10.889-1.57,23.269-0.61c18.301,1.42,32.593,7.152,42.479,17.039c9.942,9.942,15.575,24.326,16.742,42.75c0.286,4.51,0.217,12.208,0.217,12.208v93.203h-30v-68.699c-2.144-0.022-4.419-0.102-6.797-0.274c-18.249-1.319-32.525-7.012-42.432-16.918l0,0c-9.922-9.921-15.595-24.32-16.863-42.797C27.403,163.513,28.909,153.622,29.083,152.536z"/><path style="fill:#3EB52B;" d="M29.083,152.536l1.736-10.81l10.824-1.643c1.078-0.164,10.889-1.57,23.269-0.61c11.393,0.884,21.231,3.441,29.421,7.63v88.87c-2.138-0.023-4.408-0.103-6.779-0.274c-18.249-1.319-32.525-7.012-42.432-16.918l0,0c-9.922-9.921-15.595-24.32-16.863-42.797C27.403,163.513,28.909,153.622,29.083,152.536z"/><path style="fill:#BF7300;" d="M488.909,328.277c-19.438-28.636-51.963-46.088-86.891-46.088c-27.383,0-53.583,10.818-73.009,29.59c-19.427-18.772-45.626-29.59-73.009-29.59s-53.583,10.818-73.009,29.59c-19.427-18.772-45.626-29.59-73.009-29.59c-34.928,0-67.453,17.452-86.891,46.088H0v106.667h512V328.277H488.909z"/><path style="fill:#804D00;" d="M488.909,328.277c-19.438-28.636-51.963-46.088-86.891-46.088c-27.383,0-53.583,10.818-73.009,29.59c-19.427-18.772-45.626-29.59-73.009-29.59v152.755h256V328.277H488.909z"/><g></g><g></g><g></g><g></g><g></g><g></g><g></g><g></g><g></g><g></g><g></g><g></g><g></g><g></g><g></g></svg>
